<?xml version="1.0" encoding="UTF-8"?>
<svg version="1.1" xmlns="http://www.w3.org/2000/svg" width="250" height="250">
<path d="M0 0 C1.60294922 0.01353516 1.60294922 0.01353516 3.23828125 0.02734375 C4.04652344 0.03894531 4.85476562 0.05054688 5.6875 0.0625 C4.33810203 5.1902123 1.87451265 9.19115769 -0.97265625 13.59765625 C-2.41642972 16.25369433 -3.02382558 18.05577286 -3.3125 21.0625 C-2.3508459 23.66543566 -2.3508459 23.66543566 -0.75 26.20703125 C-0.19054688 27.1707666 0.36890625 28.13450195 0.9453125 29.12744141 C1.52023438 30.09601074 2.09515625 31.06458008 2.6875 32.0625 C3.67090675 33.81403237 4.65017865 35.56789366 5.625 37.32421875 C6.64446043 39.13358673 7.66534659 40.94215198 8.6875 42.75 C9.52498779 44.23149536 9.52498779 44.23149536 10.37939453 45.74291992 C14.95185293 53.80870598 19.60592801 61.82497285 24.2902832 69.82617188 C29.50089822 78.72754847 34.65759476 87.65927949 39.80224609 96.59887695 C40.39730957 97.63230225 40.99237305 98.66572754 41.60546875 99.73046875 C42.12906982 100.64078857 42.6526709 101.5511084 43.19213867 102.48901367 C43.68560791 103.33826416 44.17907715 104.18751465 44.6875 105.0625 C45.37066284 106.40308472 45.37066284 106.40308472 46.06762695 107.77075195 C48.08914767 110.63073913 49.30989199 111.20380629 52.6875 112.0625 C56.18663882 112.36907788 56.18663882 112.36907788 60 112.328125 C60.69134033 112.33003845 61.38268066 112.3319519 62.0949707 112.33392334 C63.55062221 112.33527892 65.00628607 112.3316264 66.46191406 112.32324219 C68.68061672 112.31253322 70.8985098 112.32315823 73.1171875 112.3359375 C74.53646011 112.33461579 75.95573221 112.33205317 77.375 112.328125 C79.29892578 112.32474121 79.29892578 112.32474121 81.26171875 112.32128906 C84.63364404 112.06656837 86.76804496 111.74472567 89.6875 110.0625 C91.49203301 107.85033746 91.49203301 107.85033746 92.9296875 105.09375 C93.51298828 104.06121094 94.09628906 103.02867187 94.69726562 101.96484375 C95.31279297 100.84207031 95.92832031 99.71929687 96.5625 98.5625 C97.22175901 97.38584993 97.88259431 96.21008179 98.54492188 95.03515625 C99.91987566 92.59321849 101.28796345 90.14762264 102.65136719 87.69921875 C105.76697531 82.1174115 108.98202316 76.59300476 112.1875 71.0625 C113.42499845 68.91957063 114.66197453 66.77633951 115.8984375 64.6328125 C116.51557617 63.56321289 117.13271484 62.49361328 117.76855469 61.39160156 C119.43285822 58.50426786 121.09513263 55.61578745 122.75604248 52.72650146 C123.78025665 50.94500422 124.80507651 49.16385678 125.83007812 47.3828125 C127.11383375 45.15173375 128.39645939 42.92000427 129.67773438 40.6875 C130.26103516 39.67429688 130.84433594 38.66109375 131.4453125 37.6171875 C131.99477539 36.65780273 132.54423828 35.69841797 133.11035156 34.70996094 C134.52496604 32.33533564 136.04426754 30.09083626 137.6171875 27.8203125 C140.07000686 23.89863598 140.67115838 20.59951146 139.6875 16.0625 C138.61992797 13.41389172 137.23242336 11.08317508 135.6875 8.6875 C131.6875 2.24155405 131.6875 2.24155405 131.6875 0.0625 C146.72879577 -0.37559599 146.72879577 -0.37559599 151.9296875 3.91015625 C156.06392347 8.16222904 158.57788452 13.64235404 161.375 18.8125 C162.61006312 21.06745675 163.84705186 23.32135985 165.0859375 25.57421875 C165.69276367 26.67813965 166.29958984 27.78206055 166.92480469 28.91943359 C168.49449845 31.71835846 170.11406207 34.47024903 171.7890625 37.20703125 C172.48189331 38.34156738 172.48189331 38.34156738 173.1887207 39.49902344 C174.03271604 40.86739271 174.88724917 42.22934683 175.75463867 43.58300781 C178.54717349 48.13575467 179.57999961 51.68210536 179.6875 57.0625 C178.74609375 60.0625 178.74609375 60.0625 177.125 63.0625 C176.81691406 63.6409668 176.50882813 64.21943359 176.19140625 64.81542969 C175.05387393 66.91622951 173.87590364 68.99004544 172.6875 71.0625 C172.20297363 71.90876953 171.71844727 72.75503906 171.21923828 73.62695312 C168.34158052 78.62773388 165.42931189 83.60745008 162.5 88.578125 C158.68718405 95.04895125 154.93264561 101.55233793 151.1875 108.0625 C145.81056056 117.39862034 140.39939161 126.7139578 134.96142578 136.01464844 C131.27603025 142.32328216 127.61876995 148.64743024 123.97802734 154.98193359 C120.89168821 160.3482143 117.79083499 165.70603563 114.6875 171.0625 C114.11128906 172.06055664 113.53507813 173.05861328 112.94140625 174.08691406 C111.32582173 176.87687555 109.69659808 179.65835174 108.0625 182.4375 C107.35359619 183.66774902 107.35359619 183.66774902 106.63037109 184.92285156 C105.95868896 186.0554541 105.95868896 186.0554541 105.2734375 187.2109375 C104.70181885 188.18812744 104.70181885 188.18812744 104.11865234 189.18505859 C101.59073988 192.50127266 99.0897692 194.80128077 94.92469788 195.5771637 C93.92353439 195.58336227 92.92237091 195.58956085 91.89086914 195.59594727 C90.74940933 195.6117836 89.60794952 195.62761993 88.43190002 195.64393616 C87.20784958 195.63897629 85.98379913 195.63401642 84.72265625 195.62890625 C83.45659042 195.63510483 82.1905246 195.64130341 80.88609314 195.64768982 C78.21003969 195.65479035 75.53549084 195.6535588 72.85961914 195.63891602 C69.44179268 195.62173794 66.025649 195.6452156 62.60801029 195.68040562 C59.33370631 195.7077331 56.05954205 195.69763951 52.78515625 195.69140625 C51.56313004 195.70466446 50.34110382 195.71792267 49.08204651 195.73158264 C39.62275036 195.62800657 39.62275036 195.62800657 36.09130859 192.87939453 C33.74086434 190.12503481 31.8818831 187.52903528 30.12890625 184.36328125 C29.5035498 183.24985352 28.87819336 182.13642578 28.23388672 180.98925781 C27.57253852 179.78453409 26.91124436 178.57978072 26.25 177.375 C25.54839011 176.11870993 24.84540409 174.86318751 24.14111328 173.60839844 C22.6929346 171.02672865 21.24982857 168.44232473 19.81005859 165.85595703 C16.62083135 160.14037577 13.34145414 154.47693096 10.0625 148.8125 C9.44576416 147.74427002 8.82902832 146.67604004 8.19360352 145.57543945 C3.4719775 137.40117484 -1.28339981 129.24683122 -6.0456543 121.09619141 C-10.92925517 112.73272505 -15.78519802 104.35347829 -20.60595703 95.95361328 C-23.5340889 90.85484951 -26.47707967 85.76728772 -29.48872375 80.71743774 C-30.54763466 78.94026764 -31.60091564 77.1598796 -32.65258789 75.37841797 C-33.97535303 73.1416991 -35.30862964 70.91115171 -36.65405273 68.68798828 C-39.96529595 63.06053022 -42.47487308 58.67743806 -42.3125 52.0625 C-41.23046875 48.81640625 -41.23046875 48.81640625 -39.5 45.625 C-39.02784058 44.74001831 -39.02784058 44.74001831 -38.54614258 43.8371582 C-37.49582197 41.8954421 -36.41061063 39.97756707 -35.3125 38.0625 C-34.74015625 37.06138184 -34.74015625 37.06138184 -34.15625 36.04003906 C-32.11756242 32.49748407 -30.0433489 28.97801678 -27.94140625 25.47265625 C-26.12167037 22.43749213 -24.3427081 19.38285781 -22.58984375 16.30859375 C-21.92335815 15.14807495 -21.92335815 15.14807495 -21.2434082 13.96411133 C-20.39317214 12.48188077 -19.54893263 10.99618904 -18.71166992 9.5065918 C-16.13946556 5.05356676 -14.12181558 1.87780718 -8.95703125 0.37890625 C-5.94572308 0.01861679 -3.03233896 -0.03332241 0 0 Z " fill="#CE0036" transform="translate(56.3125,37.9375)"/>
<path d="M0 0 C1.96730324 -0.01441132 1.96730324 -0.01441132 3.97434998 -0.02911377 C5.4126671 -0.03396098 6.85098624 -0.03824 8.28930664 -0.04199219 C9.75899763 -0.047743 11.22868858 -0.05350075 12.69837952 -0.05926514 C15.78101959 -0.0697747 18.86363359 -0.07561786 21.94628906 -0.07910156 C25.89874287 -0.08459066 29.85085293 -0.10862735 33.80319881 -0.13707352 C36.8392081 -0.15568382 39.87513424 -0.16090459 42.91119576 -0.16243744 C44.36847376 -0.16546743 45.82575019 -0.17350766 47.28297234 -0.18662262 C49.32008954 -0.20364996 51.35734819 -0.19996287 53.39453125 -0.1953125 C54.55431992 -0.19895813 55.71410858 -0.20260376 56.90904236 -0.20635986 C59.76196289 0.16113281 59.76196289 0.16113281 61.57928467 1.56480408 C64.0297713 4.87236665 66.03395328 8.40345445 68.07446289 11.97363281 C68.55463867 12.76833984 69.03481445 13.56304687 69.52954102 14.38183594 C72.88870079 20.27621064 72.88870079 20.27621064 72.32055664 24.24316406 C71.8062207 25.20609375 71.29188477 26.16902344 70.76196289 27.16113281 C70.46652588 27.74193604 70.17108887 28.32273926 69.86669922 28.92114258 C68.79492419 30.98819361 67.66134901 33.0112413 66.51196289 35.03613281 C66.08302734 35.79990234 65.6540918 36.56367187 65.2121582 37.35058594 C59.71668783 47.08851303 54.07946789 56.74793971 48.40063477 66.37988281 C47.28593032 68.27182457 46.17810431 70.1678322 45.07641602 72.06738281 C44.27880859 73.42863281 44.27880859 73.42863281 43.46508789 74.81738281 C42.99232422 75.63013672 42.51956055 76.44289063 42.0324707 77.28027344 C40.76196289 79.16113281 40.76196289 79.16113281 38.76196289 80.16113281 C34.80981214 80.45670835 30.84887166 80.43912141 26.88696289 80.47363281 C25.23374023 80.51713867 25.23374023 80.51713867 23.54711914 80.56152344 C21.95577148 80.5740918 21.95577148 80.5740918 20.33227539 80.58691406 C18.8745874 80.60878784 18.8745874 80.60878784 17.38745117 80.63110352 C13.94018683 80.0140323 12.93357645 78.87472657 10.76196289 76.16113281 C9.55761819 74.28412965 8.41782708 72.3648817 7.32836914 70.41894531 C6.68520752 69.28013916 6.0420459 68.14133301 5.37939453 66.96801758 C4.69430046 65.74078788 4.00932573 64.51349156 3.32446289 63.28613281 C1.90059406 60.75436662 0.47224876 58.22514162 -0.95678711 55.69628906 C-1.31469833 55.06168259 -1.67260956 54.42707611 -2.04136658 53.77323914 C-6.0032701 46.76871466 -10.14047125 39.8682702 -14.33935547 33.00341797 C-14.84088135 32.16987793 -15.34240723 31.33633789 -15.85913086 30.47753906 C-16.29668701 29.76025635 -16.73424316 29.04297363 -17.18505859 28.30395508 C-18.39858613 25.83441388 -19.0085089 23.90990537 -19.23803711 21.16113281 C-18.37353516 18.7734375 -18.37353516 18.7734375 -16.99975586 16.33300781 C-16.50926758 15.45128906 -16.0187793 14.56957031 -15.51342773 13.66113281 C-14.98942383 12.75363281 -14.46541992 11.84613281 -13.92553711 10.91113281 C-13.41313477 9.98816406 -12.90073242 9.06519531 -12.37280273 8.11425781 C-8.69562147 1.59409286 -7.71359939 0.04544331 0 0 Z " fill="#CE0036" transform="translate(98.238037109375,16.8388671875)"/>
</svg>